<svg width="48" height="48" viewBox="0 0 48 48" fill="none" xmlns="http://www.w3.org/2000/svg">
<g clip-path="url(#clip0_679_30)">
<path fill-rule="evenodd" clip-rule="evenodd" d="M1.12587 5.39026C0 7.55764 0 10.4051 0 16.1V31.9C0 37.5949 0 40.4424 1.12587 42.6097C2.07462 44.4362 3.56382 45.9254 5.39026 46.8741C7.55764 48 10.4051 48 16.1 48H31.9C37.5949 48 40.4424 48 42.6097 46.8741C44.4362 45.9254 45.9254 44.4362 46.8741 42.6097C48 40.4424 48 37.5949 48 31.9V16.1C48 10.4051 48 7.55764 46.8741 5.39026C45.9254 3.56382 44.4362 2.07462 42.6097 1.12587C40.4424 0 37.5949 0 31.9 0H16.1C10.4051 0 7.55764 0 5.39026 1.12587C3.56382 2.07462 2.07462 3.56382 1.12587 5.39026ZM34.615 24.0001L38.3372 26.4901V21.5102L34.615 24.0001ZM25.4881 30.1047V37.0446L37.146 29.2732L31.9388 25.7906L25.4881 30.1047ZM18.7377 24.0001L24.0004 27.5201L29.2626 24.0001L24.0004 20.48L18.7377 24.0001ZM10.8542 29.2732L22.5122 37.0446V30.1047L16.0619 25.7906L10.8542 29.2732ZM13.3857 24.0001L9.66308 21.5102V26.4901L13.3857 24.0001ZM22.5122 17.8954V10.9555L10.8542 18.7268L16.0619 22.2104L22.5122 17.8954ZM37.146 18.7268L25.4881 10.9555V17.8954L31.9388 22.2104L37.146 18.7268ZM41.2933 18.4955C41.2957 18.5073 41.2982 18.519 41.2999 18.5311C41.3081 18.5948 41.3133 18.6595 41.3133 18.725V29.2751C41.3133 29.3406 41.3081 29.4053 41.2999 29.47C41.2981 29.4818 41.2956 29.4939 41.2931 29.5059C41.2912 29.5152 41.2893 29.5245 41.2877 29.5336C41.2803 29.5757 41.2727 29.6174 41.2617 29.6585C41.2552 29.6831 41.2462 29.7067 41.2385 29.7305L41.2361 29.7378C41.225 29.7717 41.2138 29.8058 41.2002 29.8397C41.1901 29.8644 41.1784 29.8881 41.167 29.9117C41.1514 29.9453 41.1351 29.9781 41.1164 30.0109C41.1075 30.0259 41.0982 30.0406 41.089 30.0554C41.084 30.0634 41.079 30.0713 41.0741 30.0792C41.0541 30.1102 41.0336 30.1403 41.0111 30.1695C40.9949 30.1923 40.9776 30.2131 40.9602 30.234C40.9365 30.2614 40.9119 30.2887 40.886 30.3143L40.8817 30.3187C40.8637 30.3372 40.8457 30.3556 40.8268 30.3724C40.7994 30.3972 40.7713 30.4209 40.7425 30.4435C40.7203 30.461 40.6983 30.4782 40.6752 30.4945C40.6665 30.5 40.6588 30.5073 40.6506 30.5127L24.8254 41.0628C24.5755 41.2295 24.2878 41.3133 24.0004 41.3133C23.7126 41.3133 23.4248 41.2295 23.1748 41.0628L7.34975 30.5127C7.34578 30.5101 7.34191 30.507 7.33801 30.504C7.33383 30.5007 7.3296 30.4974 7.32516 30.4945C7.30188 30.4782 7.28003 30.461 7.25819 30.4435C7.22906 30.4209 7.20076 30.3972 7.17402 30.3724C7.15587 30.3567 7.13914 30.3396 7.1223 30.3224C7.11965 30.3197 7.117 30.317 7.11433 30.3143C7.08843 30.2887 7.06384 30.2614 7.04056 30.234C7.02277 30.2131 7.00546 30.1923 6.98911 30.1695C6.96726 30.1403 6.94625 30.1102 6.92667 30.0792C6.91163 30.0564 6.89754 30.0338 6.88393 30.0109C6.86567 29.9781 6.84931 29.9453 6.83331 29.9117C6.82197 29.8881 6.81016 29.8644 6.80013 29.8397C6.78652 29.8057 6.77531 29.7716 6.76416 29.7377L6.76181 29.7305C6.75953 29.7235 6.75719 29.7166 6.75484 29.7096C6.74916 29.6928 6.74346 29.6759 6.73865 29.6585C6.72878 29.6216 6.7219 29.5842 6.71498 29.5465L6.71262 29.5336C6.71119 29.5253 6.70945 29.5168 6.7077 29.5082C6.70508 29.4954 6.70245 29.4826 6.70081 29.47C6.69209 29.4053 6.68719 29.3406 6.68719 29.2751V18.725C6.68719 18.6595 6.69209 18.5948 6.70081 18.5311C6.70241 18.5183 6.70494 18.5059 6.70748 18.4934C6.7093 18.4845 6.71113 18.4756 6.71262 18.4665C6.71344 18.462 6.71426 18.4576 6.71507 18.4532C6.72196 18.4156 6.72882 18.3782 6.73865 18.3416C6.74352 18.324 6.74932 18.3068 6.75507 18.2898C6.75734 18.2831 6.75961 18.2764 6.76181 18.2697L6.76271 18.267C6.77434 18.2314 6.78593 18.1959 6.80013 18.1613C6.81007 18.137 6.82176 18.1126 6.83301 18.0891L6.83331 18.0885C6.84931 18.0547 6.86567 18.0219 6.88393 17.9901C6.89754 17.9664 6.91163 17.9436 6.92667 17.9209C6.94625 17.8899 6.96726 17.8598 6.98911 17.8307C7.00546 17.8088 7.02277 17.787 7.04056 17.7659C7.06384 17.7387 7.08843 17.7114 7.11433 17.6858C7.11707 17.6831 7.1198 17.6803 7.12252 17.6775C7.13929 17.6603 7.15595 17.6433 7.17402 17.6276C7.20076 17.603 7.22906 17.5792 7.25819 17.5566C7.28003 17.5392 7.30188 17.5219 7.32516 17.5056C7.33375 17.5001 7.34151 17.4928 7.34975 17.4873L23.1748 6.9373C23.6747 6.60399 24.3256 6.60399 24.8254 6.9373L40.6506 17.4873C40.6588 17.4928 40.6665 17.5001 40.6752 17.5056C40.6983 17.5219 40.7203 17.5392 40.7425 17.5566C40.7713 17.5792 40.7994 17.603 40.8268 17.6276C40.8456 17.6444 40.8635 17.6628 40.8815 17.6812L40.886 17.6858C40.9119 17.7114 40.9365 17.7387 40.9602 17.7659C40.9776 17.787 40.9949 17.8088 41.0111 17.8307C41.0336 17.8598 41.0541 17.8899 41.0741 17.9209C41.0771 17.9256 41.08 17.9303 41.083 17.935C41.0942 17.9531 41.1056 17.9713 41.1164 17.9901C41.1351 18.0219 41.1514 18.0547 41.167 18.0885C41.1784 18.1121 41.1901 18.1367 41.2002 18.1613C41.2144 18.1958 41.226 18.2313 41.2376 18.2668L41.2385 18.2697C41.241 18.2774 41.2437 18.2852 41.2463 18.2929C41.2518 18.3089 41.2573 18.325 41.2617 18.3416C41.2727 18.3825 41.2803 18.4244 41.2877 18.4665C41.2893 18.4763 41.2913 18.4859 41.2933 18.4955Z" fill="black"/>
<path d="M38.3373 26.49L34.6151 24L38.3373 21.5101V26.49ZM25.4882 37.0446V30.1047L31.9388 25.7906L37.146 29.2731L25.4882 37.0446ZM24.0005 27.52L18.7378 24L24.0005 20.48L29.2627 24L24.0005 27.52ZM22.5123 37.0446L10.8543 29.2731L16.062 25.7906L22.5123 30.1047V37.0446ZM9.66314 21.5101L13.3857 24L9.66314 26.49V21.5101ZM22.5123 10.9554V17.8953L16.062 22.2104L10.8543 18.7268L22.5123 10.9554ZM25.4882 10.9554L37.146 18.7268L31.9388 22.2104L25.4882 17.8953V10.9554ZM41.2999 18.531C41.2968 18.5091 41.2913 18.4883 41.2878 18.4664C41.2804 18.4244 41.2727 18.3825 41.2617 18.3415C41.2553 18.3169 41.2462 18.2933 41.2386 18.2697C41.2266 18.2331 41.2148 18.1967 41.2003 18.1613C41.1901 18.1367 41.1784 18.1121 41.1671 18.0885C41.1514 18.0547 41.1352 18.0218 41.1165 17.9901C41.1028 17.9663 41.0883 17.9435 41.0742 17.9208C41.0541 17.8898 41.0336 17.8597 41.0112 17.8306C40.9949 17.8087 40.9776 17.7869 40.9603 17.7659C40.9366 17.7387 40.912 17.7113 40.8861 17.6858C40.8666 17.6658 40.8473 17.6458 40.8268 17.6275C40.7995 17.6029 40.7713 17.5792 40.7426 17.5565C40.7204 17.5392 40.6984 17.5219 40.6752 17.5055C40.6665 17.5 40.6589 17.4927 40.6506 17.4873L24.8255 6.93724C24.3257 6.60393 23.6748 6.60393 23.1748 6.93724L7.34981 17.4873C7.34158 17.4927 7.33381 17.5 7.32522 17.5055C7.30194 17.5219 7.2801 17.5392 7.25825 17.5565C7.22912 17.5792 7.20083 17.6029 7.17408 17.6275C7.15307 17.6458 7.13397 17.6658 7.1144 17.6858C7.08849 17.7113 7.0639 17.7387 7.04062 17.7659C7.02283 17.7869 7.00552 17.8087 6.98917 17.8306C6.96732 17.8597 6.94631 17.8898 6.92673 17.9208C6.91169 17.9435 6.8976 17.9663 6.88399 17.9901C6.86573 18.0218 6.84937 18.0547 6.83338 18.0885C6.82203 18.1121 6.81022 18.1367 6.80019 18.1613C6.78563 18.1967 6.77381 18.2331 6.76187 18.2697C6.75411 18.2933 6.74551 18.3169 6.73871 18.3415C6.72773 18.3825 6.72044 18.4244 6.71269 18.4664C6.7091 18.4883 6.70361 18.5091 6.70087 18.531C6.69215 18.5947 6.68726 18.6594 6.68726 18.725V29.275C6.68726 29.3405 6.69215 29.4052 6.70087 29.4699C6.70361 29.491 6.7091 29.5127 6.71269 29.5336C6.72044 29.5756 6.72773 29.6174 6.73871 29.6584C6.74551 29.683 6.75411 29.7067 6.76187 29.7304C6.77381 29.7667 6.78563 29.8033 6.80019 29.8397C6.81022 29.8644 6.82203 29.888 6.83338 29.9117C6.84937 29.9452 6.86573 29.978 6.88399 30.0109C6.8976 30.0338 6.91169 30.0563 6.92673 30.0791C6.94631 30.1102 6.96732 30.1403 6.98917 30.1694C7.00552 30.1922 7.02283 30.2131 7.04062 30.234C7.0639 30.2613 7.08849 30.2886 7.1144 30.3142C7.13397 30.3341 7.15307 30.3542 7.17408 30.3723C7.20083 30.3972 7.22912 30.4208 7.25825 30.4435C7.2801 30.4609 7.30194 30.4781 7.32522 30.4945C7.33381 30.5 7.34158 30.5072 7.34981 30.5126L23.1748 41.0627C23.4248 41.2294 23.7126 41.3132 24.0005 41.3132C24.2878 41.3132 24.5755 41.2294 24.8255 41.0627L40.6506 30.5126C40.6589 30.5072 40.6665 30.5 40.6752 30.4945C40.6984 30.4781 40.7204 30.4609 40.7426 30.4435C40.7713 30.4208 40.7995 30.3972 40.8268 30.3723C40.8473 30.3542 40.8666 30.3341 40.8861 30.3142C40.912 30.2886 40.9366 30.2613 40.9603 30.234C40.9776 30.2131 40.9949 30.1922 41.0112 30.1694C41.0336 30.1403 41.0541 30.1102 41.0742 30.0791C41.0883 30.0563 41.1028 30.0338 41.1165 30.0109C41.1352 29.978 41.1514 29.9452 41.1671 29.9117C41.1784 29.888 41.1901 29.8644 41.2003 29.8397C41.2148 29.8033 41.2266 29.7667 41.2386 29.7304C41.2462 29.7067 41.2553 29.683 41.2617 29.6584C41.2727 29.6174 41.2804 29.5756 41.2878 29.5336C41.2913 29.5127 41.2968 29.491 41.2999 29.4699C41.3082 29.4052 41.3133 29.3405 41.3133 29.275V18.725C41.3133 18.6594 41.3082 18.5947 41.2999 18.531Z" fill="white"/>
</g>
<defs>
<clipPath id="clip0_679_30">
<rect width="48" height="48" fill="white"/>
</clipPath>
</defs>
</svg>
