<svg width="48" height="48" viewBox="0 0 48 48" fill="none" xmlns="http://www.w3.org/2000/svg">
<path d="M0 16.1C0 10.4051 0 7.55764 1.12587 5.39026C2.07462 3.56382 3.56382 2.07462 5.39026 1.12587C7.55764 0 10.4051 0 16.1 0H31.9C37.5949 0 40.4424 0 42.6097 1.12587C44.4362 2.07462 45.9254 3.56382 46.8741 5.39026C48 7.55764 48 10.4051 48 16.1V31.9C48 37.5949 48 40.4424 46.8741 42.6097C45.9254 44.4362 44.4362 45.9254 42.6097 46.8741C40.4424 48 37.5949 48 31.9 48H16.1C10.4051 48 7.55764 48 5.39026 46.8741C3.56382 45.9254 2.07462 44.4362 1.12587 42.6097C0 40.4424 0 37.5949 0 31.9V16.1Z" fill="#EA4C89"/>
<path fill-rule="evenodd" clip-rule="evenodd" d="M24 7C14.615 7 7 14.615 7 24C7 33.385 14.615 41 24 41C33.3666 41 41 33.385 41 24C41 14.615 33.3666 7 24 7ZM35.2288 14.8362C37.257 17.3069 38.474 20.4599 38.5109 23.8709C38.0315 23.7787 33.2375 22.8015 28.4067 23.41C28.2961 23.1703 28.2039 22.9121 28.0933 22.654C27.7983 21.9534 27.4664 21.2343 27.1345 20.5521C32.4816 18.3764 34.9154 15.2419 35.2288 14.8362ZM24 9.50759C27.6876 9.50759 31.0618 10.8905 33.6247 13.1584C33.3666 13.5271 31.1724 16.4588 26.0098 18.3948C23.6312 14.0249 20.9946 10.4479 20.5889 9.89479C21.6768 9.63666 22.82 9.50759 24 9.50759ZM17.8232 10.872C18.2104 11.3883 20.7918 14.9837 23.2072 19.2614C16.4219 21.0683 10.4295 21.0315 9.78416 21.0315C10.7245 16.5325 13.7668 12.7896 17.8232 10.872ZM9.47072 24.0184C9.47072 23.8709 9.47072 23.7234 9.47072 23.5759C10.0976 23.5943 17.141 23.6866 24.3872 21.5109C24.8113 22.3221 25.1985 23.1518 25.5672 23.9816C25.3828 24.0369 25.18 24.0922 24.9957 24.1475C17.5098 26.5629 13.5271 33.1638 13.1952 33.7169C10.8905 31.154 9.47072 27.743 9.47072 24.0184ZM24 38.5293C20.6443 38.5293 17.5466 37.3861 15.0943 35.4685C15.3525 34.9339 18.3026 29.2549 26.4891 26.397C26.526 26.3785 26.5445 26.3785 26.5813 26.3601C28.628 31.6518 29.4577 36.0954 29.679 37.3677C27.9273 38.1236 26.0098 38.5293 24 38.5293ZM32.0944 36.0401C31.9469 35.1551 31.1725 30.9143 29.2733 25.6963C33.8276 24.9772 37.8102 26.1573 38.308 26.3232C37.6811 30.3612 35.3579 33.846 32.0944 36.0401Z" fill="white"/>
</svg>
