<svg width="24" height="24" viewBox="0 0 32 32" fill="none" xmlns="http://www.w3.org/2000/svg">
<path fill-rule="evenodd" clip-rule="evenodd" d="M3.9751 5.46249C4.52738 5.46249 4.9751 5.91021 4.9751 6.46249V11.4625H9.9751C10.5274 11.4625 10.9751 11.9102 10.9751 12.4625C10.9751 13.0148 10.5274 13.4625 9.9751 13.4625H3.9751C3.42281 13.4625 2.9751 13.0148 2.9751 12.4625V6.46249C2.9751 5.91021 3.42281 5.46249 3.9751 5.46249Z" fill="#ffffff"/>
<path fill-rule="evenodd" clip-rule="evenodd" d="M13.6618 4.2313C15.9898 3.76748 18.4031 4.00455 20.5964 4.91251C22.7897 5.82048 24.6644 7.35854 25.9834 9.33215C27.3024 11.3057 28.0064 13.6262 28.0064 16C28.0064 18.3738 27.3024 20.6943 25.9834 22.6679C24.6644 24.6415 22.7897 26.1795 20.5964 27.0875C18.4031 27.9955 15.9898 28.2325 13.6618 27.7687C11.3337 27.3049 9.19554 26.161 7.5177 24.4818C7.12734 24.0911 7.1276 23.458 7.51828 23.0676C7.90896 22.6772 8.54213 22.6775 8.93249 23.0682C10.3307 24.4675 12.1125 25.4207 14.0525 25.8073C15.9926 26.1938 18.0037 25.9962 19.8314 25.2396C21.6591 24.4829 23.2214 23.2012 24.3206 21.5566C25.4197 19.9119 26.0064 17.9782 26.0064 16C26.0064 14.0218 25.4197 12.0881 24.3206 10.4435C23.2214 8.79879 21.6591 7.51707 19.8314 6.76043C18.0037 6.00379 15.9926 5.80624 14.0525 6.19275C12.1125 6.57926 10.3307 7.53248 8.93249 8.93182L8.93116 8.93315L4.68116 13.1707C4.29006 13.5606 3.6569 13.5597 3.26695 13.1686C2.877 12.7775 2.87793 12.1443 3.26903 11.7544L7.5177 7.51819C7.51793 7.51796 7.51815 7.51774 7.51838 7.51751C9.19612 5.83867 11.334 4.69505 13.6618 4.2313Z" fill="#ffffff"/>
</svg>
