<svg width="193" height="31" viewBox="0 0 193 31" fill="none" xmlns="http://www.w3.org/2000/svg">
<path d="M6.28 6.48V13.12H17.76V18.24H6.28V24.88H19.04V30H0.88V1.36H19.04V6.48H6.28ZM20.5038 10.4H26.4638L31.3438 22.88H31.6238L36.5438 10.4H42.4638L34.0238 30H28.8638L20.5038 10.4ZM62.8234 25.28C61.9168 26.88 60.6901 28.1733 59.1434 29.16C57.6234 30.1467 55.7568 30.64 53.5434 30.64C52.0501 30.64 50.6634 30.3867 49.3834 29.88C48.1301 29.3467 47.0368 28.6133 46.1034 27.68C45.1701 26.7467 44.4368 25.6533 43.9034 24.4C43.3968 23.12 43.1434 21.72 43.1434 20.2C43.1434 18.7867 43.3968 17.4533 43.9034 16.2C44.4101 14.92 45.1168 13.8133 46.0234 12.88C46.9301 11.92 47.9968 11.16 49.2234 10.6C50.4768 10.04 51.8501 9.76 53.3434 9.76C54.9168 9.76 56.3168 10.0267 57.5434 10.56C58.7701 11.0667 59.7968 11.7867 60.6234 12.72C61.4501 13.6267 62.0768 14.7067 62.5034 15.96C62.9301 17.2133 63.1434 18.5733 63.1434 20.04C63.1434 20.2267 63.1434 20.3867 63.1434 20.52C63.1168 20.68 63.1034 20.8267 63.1034 20.96C63.0768 21.0933 63.0634 21.24 63.0634 21.4H48.3034C48.4101 22.2 48.6234 22.8933 48.9434 23.48C49.2901 24.04 49.7034 24.52 50.1834 24.92C50.6901 25.2933 51.2368 25.5733 51.8234 25.76C52.4101 25.92 53.0101 26 53.6234 26C54.8234 26 55.8101 25.7333 56.5834 25.2C57.3834 24.64 58.0101 23.9467 58.4634 23.12L62.8234 25.28ZM58.0634 17.68C58.0368 17.3333 57.9168 16.9467 57.7034 16.52C57.5168 16.0933 57.2234 15.6933 56.8234 15.32C56.4501 14.9467 55.9701 14.64 55.3834 14.4C54.8234 14.16 54.1434 14.04 53.3434 14.04C52.2234 14.04 51.2368 14.36 50.3834 15C49.5301 15.64 48.9301 16.5333 48.5834 17.68H58.0634ZM71.41 12.96H71.73C72.3433 11.9733 73.17 11.2 74.21 10.64C75.25 10.0533 76.4367 9.76 77.77 9.76C78.9967 9.76 80.0767 9.96 81.01 10.36C81.9433 10.76 82.7033 11.3333 83.29 12.08C83.9033 12.8 84.3567 13.68 84.65 14.72C84.97 15.7333 85.13 16.8667 85.13 18.12V30H79.89V18.76C79.89 17.3467 79.57 16.3067 78.93 15.64C78.3167 14.9467 77.41 14.6 76.21 14.6C75.49 14.6 74.85 14.76 74.29 15.08C73.7567 15.3733 73.29 15.7867 72.89 16.32C72.5167 16.8267 72.2233 17.44 72.01 18.16C71.8233 18.8533 71.73 19.6 71.73 20.4V30H66.49V10.4H71.41V12.96ZM90.6031 14.88H87.1631V10.4H90.6031V4.4H95.8431V10.4H100.643V14.88H95.8431V22.48C95.8431 22.9333 95.8831 23.36 95.9631 23.76C96.0698 24.1333 96.2565 24.4533 96.5231 24.72C96.8965 25.1467 97.4298 25.36 98.1231 25.36C98.5765 25.36 98.9365 25.32 99.2031 25.24C99.4698 25.1333 99.7231 25 99.9631 24.84L101.443 29.44C100.83 29.7333 100.163 29.9467 99.4431 30.08C98.7498 30.24 97.9765 30.32 97.1231 30.32C96.1365 30.32 95.2431 30.1733 94.4431 29.88C93.6698 29.56 93.0165 29.1333 92.4831 28.6C91.2298 27.4 90.6031 25.6933 90.6031 23.48V14.88Z" fill="black"/>
<path d="M113.927 1.36H119.327V12.8H131.367V1.36H136.767V30H131.367V17.92H119.327V30H113.927V1.36ZM144.801 7.56C144.347 7.56 143.907 7.48 143.481 7.32C143.081 7.13333 142.721 6.89333 142.401 6.6C142.107 6.28 141.867 5.92 141.681 5.52C141.521 5.12 141.441 4.68 141.441 4.2C141.441 3.72 141.521 3.28 141.681 2.88C141.867 2.48 142.107 2.13333 142.401 1.84C142.721 1.52 143.081 1.28 143.481 1.12C143.907 0.933332 144.347 0.839999 144.801 0.839999C145.734 0.839999 146.534 1.17333 147.201 1.84C147.867 2.48 148.201 3.26667 148.201 4.2C148.201 5.13333 147.867 5.93333 147.201 6.6C146.534 7.24 145.734 7.56 144.801 7.56ZM142.201 30V10.4H147.441V30H142.201ZM150.152 10.4H156.112L160.992 22.88H161.272L166.192 10.4H172.112L163.672 30H158.512L150.152 10.4ZM192.472 25.28C191.565 26.88 190.339 28.1733 188.792 29.16C187.272 30.1467 185.405 30.64 183.192 30.64C181.699 30.64 180.312 30.3867 179.032 29.88C177.779 29.3467 176.685 28.6133 175.752 27.68C174.819 26.7467 174.085 25.6533 173.552 24.4C173.045 23.12 172.792 21.72 172.792 20.2C172.792 18.7867 173.045 17.4533 173.552 16.2C174.059 14.92 174.765 13.8133 175.672 12.88C176.579 11.92 177.645 11.16 178.872 10.6C180.125 10.04 181.499 9.76 182.992 9.76C184.565 9.76 185.965 10.0267 187.192 10.56C188.419 11.0667 189.445 11.7867 190.272 12.72C191.099 13.6267 191.725 14.7067 192.152 15.96C192.579 17.2133 192.792 18.5733 192.792 20.04C192.792 20.2267 192.792 20.3867 192.792 20.52C192.765 20.68 192.752 20.8267 192.752 20.96C192.725 21.0933 192.712 21.24 192.712 21.4H177.952C178.059 22.2 178.272 22.8933 178.592 23.48C178.939 24.04 179.352 24.52 179.832 24.92C180.339 25.2933 180.885 25.5733 181.472 25.76C182.059 25.92 182.659 26 183.272 26C184.472 26 185.459 25.7333 186.232 25.2C187.032 24.64 187.659 23.9467 188.112 23.12L192.472 25.28ZM187.712 17.68C187.685 17.3333 187.565 16.9467 187.352 16.52C187.165 16.0933 186.872 15.6933 186.472 15.32C186.099 14.9467 185.619 14.64 185.032 14.4C184.472 14.16 183.792 14.04 182.992 14.04C181.872 14.04 180.885 14.36 180.032 15C179.179 15.64 178.579 16.5333 178.232 17.68H187.712Z" fill="#7848F4"/>
</svg>
