<svg xmlns="http://www.w3.org/2000/svg" width="100" height="100" fill="none" viewBox="0 0 100 100"><g clip-path="url(#clip0_1_28)"><rect width="100" height="100" fill="#fff" rx="50"/><g clip-path="url(#clip1_1_28)"><mask id="mask0_1_28" style="mask-type:luminance" width="100" height="100" x="0" y="0" maskUnits="userSpaceOnUse"><path fill="#fff" d="M100 0H0V100H100V0Z"/></mask><g mask="url(#mask0_1_28)"><path fill="#fff" d="M100 0H0V100H100V0Z"/><path fill="url(#paint0_linear_1_28)" d="M100 0.0188446H0V100.019H100V0.0188446Z"/><path fill="url(#paint1_linear_1_28)" d="M48.3349 -58.3487L-59.1383 49.1245L-4.2893 103.974L103.184 -3.49966L48.3349 -58.3487Z" opacity=".3"/><path fill="url(#paint2_linear_1_28)" d="M32.4732 -74.2102L-75 33.2629L-18.4315 89.8314L89.0417 -17.6417L32.4732 -74.2102Z" opacity=".3"/><path fill="url(#paint3_linear_1_28)" d="M32.4732 -74.2102L-75 33.2629L-32.5736 75.6893L74.8996 -31.7838L32.4732 -74.2102Z" opacity=".3"/></g></g><path fill="#fff" d="M38.2642 67.3V30.2091H61.5184V35.0266H43.8604V46.3277H60.305V51.1271H43.8604V62.4825H61.7358V67.3H38.2642Z"/></g><defs><linearGradient id="paint0_linear_1_28" x1="100" x2="0" y1="100" y2=".019" gradientUnits="userSpaceOnUse"><stop stop-color="#3F69FF"/><stop offset=".536" stop-color="#7798FF"/><stop offset="1" stop-color="#88A9FF"/></linearGradient><linearGradient id="paint1_linear_1_28" x1="103.184" x2="-34.004" y1="-3.5" y2="-45.155" gradientUnits="userSpaceOnUse"><stop stop-color="#fff" stop-opacity=".6"/><stop offset="1" stop-color="#fff" stop-opacity="0"/></linearGradient><linearGradient id="paint2_linear_1_28" x1="89.042" x2="-51.997" y1="-17.642" y2="-58.481" gradientUnits="userSpaceOnUse"><stop stop-color="#fff" stop-opacity=".6"/><stop offset="1" stop-color="#fff" stop-opacity="0"/></linearGradient><linearGradient id="paint3_linear_1_28" x1="74.9" x2="-32.418" y1="-31.784" y2="-76.347" gradientUnits="userSpaceOnUse"><stop stop-color="#fff" stop-opacity=".6"/><stop offset="1" stop-color="#fff" stop-opacity="0"/></linearGradient><clipPath id="clip0_1_28"><rect width="100" height="100" fill="#fff" rx="50"/></clipPath><clipPath id="clip1_1_28"><rect width="100" height="100" fill="#fff"/></clipPath></defs></svg>