<svg width="100" height="100" viewBox="0 0 100 100" fill="none" xmlns="http://www.w3.org/2000/svg">
<g clip-path="url(#clip0_1_28)">
<rect width="100" height="100" rx="50" fill="white"/>
<g clip-path="url(#clip1_1_28)">
<mask id="mask0_1_28" style="mask-type:luminance" maskUnits="userSpaceOnUse" x="0" y="0" width="100" height="100">
<path d="M100 0H0V100H100V0Z" fill="white"/>
</mask>
<g mask="url(#mask0_1_28)">
<path d="M100 0H0V100H100V0Z" fill="white"/>
<path d="M100 0.0188446H0V100.019H100V0.0188446Z" fill="url(#paint0_linear_1_28)"/>
<path opacity="0.3" d="M48.3349 -58.3487L-59.1383 49.1245L-4.2893 103.974L103.184 -3.49966L48.3349 -58.3487Z" fill="url(#paint1_linear_1_28)"/>
<path opacity="0.3" d="M32.4732 -74.2102L-75 33.2629L-18.4315 89.8314L89.0417 -17.6417L32.4732 -74.2102Z" fill="url(#paint2_linear_1_28)"/>
<path opacity="0.3" d="M32.4732 -74.2102L-75 33.2629L-32.5736 75.6893L74.8996 -31.7838L32.4732 -74.2102Z" fill="url(#paint3_linear_1_28)"/>
</g>
</g>
<path d="M38.2642 67.3V30.2091H61.5184V35.0266H43.8604V46.3277H60.305V51.1271H43.8604V62.4825H61.7358V67.3H38.2642Z" fill="white"/>
</g>
<defs>
<linearGradient id="paint0_linear_1_28" x1="100" y1="100" x2="0" y2="0.0188446" gradientUnits="userSpaceOnUse">
<stop stop-color="#3F69FF"/>
<stop offset="0.536458" stop-color="#7798FF"/>
<stop offset="1" stop-color="#88A9FF"/>
</linearGradient>
<linearGradient id="paint1_linear_1_28" x1="103.184" y1="-3.49952" x2="-34.0038" y2="-45.1552" gradientUnits="userSpaceOnUse">
<stop stop-color="white" stop-opacity="0.6"/>
<stop offset="1" stop-color="white" stop-opacity="0"/>
</linearGradient>
<linearGradient id="paint2_linear_1_28" x1="89.0418" y1="-17.6417" x2="-51.9974" y2="-58.4815" gradientUnits="userSpaceOnUse">
<stop stop-color="white" stop-opacity="0.6"/>
<stop offset="1" stop-color="white" stop-opacity="0"/>
</linearGradient>
<linearGradient id="paint3_linear_1_28" x1="74.8996" y1="-31.7839" x2="-32.4182" y2="-76.3468" gradientUnits="userSpaceOnUse">
<stop stop-color="white" stop-opacity="0.6"/>
<stop offset="1" stop-color="white" stop-opacity="0"/>
</linearGradient>
<clipPath id="clip0_1_28">
<rect width="100" height="100" rx="50" fill="white"/>
</clipPath>
<clipPath id="clip1_1_28">
<rect width="100" height="100" fill="white"/>
</clipPath>
</defs>
</svg>
