<svg width="314" height="188" viewBox="0 0 314 188" fill="none" xmlns="http://www.w3.org/2000/svg">
<path d="M13.248 134.368V144.992H31.616V153.184H13.248V163.808H33.664V172H4.608V126.176H33.664V134.368H13.248ZM36.006 140.64H45.542L53.35 160.608H53.798L61.67 140.64H71.142L57.638 172H49.382L36.006 140.64ZM103.718 164.448C102.267 167.008 100.304 169.077 97.8295 170.656C95.3975 172.235 92.4108 173.024 88.8695 173.024C86.4802 173.024 84.2615 172.619 82.2135 171.808C80.2082 170.955 78.4588 169.781 76.9655 168.288C75.4722 166.795 74.2988 165.045 73.4455 163.04C72.6348 160.992 72.2295 158.752 72.2295 156.32C72.2295 154.059 72.6348 151.925 73.4455 149.92C74.2562 147.872 75.3868 146.101 76.8375 144.608C78.2882 143.072 79.9948 141.856 81.9575 140.96C83.9628 140.064 86.1602 139.616 88.5495 139.616C91.0668 139.616 93.3068 140.043 95.2695 140.896C97.2322 141.707 98.8748 142.859 100.198 144.352C101.52 145.803 102.523 147.531 103.206 149.536C103.888 151.541 104.229 153.717 104.229 156.064C104.229 156.363 104.229 156.619 104.229 156.832C104.187 157.088 104.166 157.323 104.166 157.536C104.123 157.749 104.102 157.984 104.102 158.24H80.4855C80.6562 159.52 80.9975 160.629 81.5095 161.568C82.0642 162.464 82.7255 163.232 83.4935 163.872C84.3042 164.469 85.1788 164.917 86.1175 165.216C87.0562 165.472 88.0162 165.6 88.9975 165.6C90.9175 165.6 92.4962 165.173 93.7335 164.32C95.0135 163.424 96.0162 162.315 96.7415 160.992L103.718 164.448ZM96.1015 152.288C96.0588 151.733 95.8668 151.115 95.5255 150.432C95.2268 149.749 94.7575 149.109 94.1175 148.512C93.5202 147.915 92.7522 147.424 91.8135 147.04C90.9175 146.656 89.8295 146.464 88.5495 146.464C86.7575 146.464 85.1788 146.976 83.8135 148C82.4482 149.024 81.4882 150.453 80.9335 152.288H96.1015ZM117.456 144.736H117.968C118.949 143.157 120.272 141.92 121.936 141.024C123.6 140.085 125.499 139.616 127.632 139.616C129.595 139.616 131.323 139.936 132.816 140.576C134.309 141.216 135.525 142.133 136.464 143.328C137.445 144.48 138.171 145.888 138.64 147.552C139.152 149.173 139.408 150.987 139.408 152.992V172H131.024V154.016C131.024 151.755 130.512 150.091 129.488 149.024C128.507 147.915 127.056 147.36 125.136 147.36C123.984 147.36 122.96 147.616 122.064 148.128C121.211 148.597 120.464 149.259 119.824 150.112C119.227 150.923 118.757 151.904 118.416 153.056C118.117 154.165 117.968 155.36 117.968 156.64V172H109.584V140.64H117.456V144.736ZM148.165 147.808H142.661V140.64H148.165V131.04H156.549V140.64H164.229V147.808H156.549V159.968C156.549 160.693 156.613 161.376 156.741 162.016C156.912 162.613 157.21 163.125 157.637 163.552C158.234 164.235 159.088 164.576 160.197 164.576C160.922 164.576 161.498 164.512 161.925 164.384C162.352 164.213 162.757 164 163.141 163.744L165.509 171.104C164.528 171.573 163.461 171.915 162.309 172.128C161.2 172.384 159.962 172.512 158.597 172.512C157.018 172.512 155.589 172.277 154.309 171.808C153.072 171.296 152.026 170.613 151.173 169.76C149.168 167.84 148.165 165.109 148.165 161.568V147.808Z" fill="black"/>
<path d="M185.483 126.176H194.123V144.48H213.387V126.176H222.027V172H213.387V152.672H194.123V172H185.483V126.176ZM234.881 136.096C234.156 136.096 233.452 135.968 232.769 135.712C232.129 135.413 231.553 135.029 231.041 134.56C230.572 134.048 230.188 133.472 229.889 132.832C229.633 132.192 229.505 131.488 229.505 130.72C229.505 129.952 229.633 129.248 229.889 128.608C230.188 127.968 230.572 127.413 231.041 126.944C231.553 126.432 232.129 126.048 232.769 125.792C233.452 125.493 234.156 125.344 234.881 125.344C236.374 125.344 237.654 125.877 238.721 126.944C239.788 127.968 240.321 129.227 240.321 130.72C240.321 132.213 239.788 133.493 238.721 134.56C237.654 135.584 236.374 136.096 234.881 136.096ZM230.721 172V140.64H239.105V172H230.721ZM243.444 140.64H252.98L260.788 160.608H261.236L269.108 140.64H278.58L265.076 172H256.82L243.444 140.64ZM311.155 164.448C309.704 167.008 307.742 169.077 305.267 170.656C302.835 172.235 299.848 173.024 296.307 173.024C293.918 173.024 291.699 172.619 289.651 171.808C287.646 170.955 285.896 169.781 284.403 168.288C282.91 166.795 281.736 165.045 280.883 163.04C280.072 160.992 279.667 158.752 279.667 156.32C279.667 154.059 280.072 151.925 280.883 149.92C281.694 147.872 282.824 146.101 284.275 144.608C285.726 143.072 287.432 141.856 289.395 140.96C291.4 140.064 293.598 139.616 295.987 139.616C298.504 139.616 300.744 140.043 302.707 140.896C304.67 141.707 306.312 142.859 307.635 144.352C308.958 145.803 309.96 147.531 310.643 149.536C311.326 151.541 311.667 153.717 311.667 156.064C311.667 156.363 311.667 156.619 311.667 156.832C311.624 157.088 311.603 157.323 311.603 157.536C311.56 157.749 311.539 157.984 311.539 158.24H287.923C288.094 159.52 288.435 160.629 288.947 161.568C289.502 162.464 290.163 163.232 290.931 163.872C291.742 164.469 292.616 164.917 293.555 165.216C294.494 165.472 295.454 165.6 296.435 165.6C298.355 165.6 299.934 165.173 301.171 164.32C302.451 163.424 303.454 162.315 304.179 160.992L311.155 164.448ZM303.539 152.288C303.496 151.733 303.304 151.115 302.963 150.432C302.664 149.749 302.195 149.109 301.555 148.512C300.958 147.915 300.19 147.424 299.251 147.04C298.355 146.656 297.267 146.464 295.987 146.464C294.195 146.464 292.616 146.976 291.251 148C289.886 149.024 288.926 150.453 288.371 152.288H303.539Z" fill="#7848F4"/>
<rect x="104" width="32" height="100" fill="#7848F4"/>
<rect x="141" width="32" height="100" fill="#3818D9" fill-opacity="0.75"/>
<rect x="178" width="32" height="100" fill="#3818D9" fill-opacity="0.5"/>
</svg>
